<svg width="164" height="60" xmlns="http://www.w3.org/2000/svg" xmlns:xlink="http://www.w3.org/1999/xlink" xml:space="preserve" overflow="hidden"><defs><clipPath id="clip0"><rect x="0" y="0" width="164" height="60"/></clipPath><clipPath id="clip1"><rect x="0" y="0" width="164" height="60"/></clipPath></defs><g clip-path="url(#clip0)"><g clip-path="url(#clip1)"><path d="M20.9924 41.4932C18.4989 44.3935 15.5986 45.5523 11.891 45.5523 5.63138 45.5523 0.992816 41.4932 0.992816 35.061L0.992816 15.5823 12.0049 15.5823 12.0049 32.6815C12.1221 35.5233 12.8155 38.5961 16.2366 38.5961 21.6857 38.5961 20.9924 32.6262 20.9924 32.2779L20.9924 15.5823 32.0045 15.5823 32.0045 37.2062C32.0045 39.8135 32.0598 41.5518 32.3528 44.68L21.1649 44.68 20.9924 41.4932Z" fill="#2B2A29" fill-rule="evenodd" fill-opacity="1" transform="matrix(1.00664 0 0 1 0.237087 0.00192209)"/><path d="M51.6557 2.83197C49.3348 10.5434 46.786 18.4826 46.8446 26.5391 46.8446 34.5988 49.3934 42.5381 51.7111 50.2462L44.5237 50.2462C41.5095 42.5381 38.1469 34.9439 38.1469 26.5391 38.1469 18.1343 41.5095 10.5434 44.5237 2.83197L51.6557 2.83197Z" fill="#898989" fill-rule="evenodd" fill-opacity="1" transform="matrix(1.00664 0 0 1 0.237087 0.00192209)"/><path d="M65.6072 19.7001 65.7244 19.7001C67.9249 16.2789 70.8805 14.7132 75.1675 14.7132 83.8067 14.7132 87.5729 22.0763 87.5729 29.7291 87.5729 38.2478 83.2858 45.5523 73.9534 45.5523 70.7048 45.5523 67.7523 43.7555 65.7244 41.2035L65.6072 41.2035 65.6072 55.8093 54.5984 55.8093 54.5984 15.5823 65.6072 15.5823 65.6072 19.7001ZM65.6072 30.1328C65.6072 33.8436 66.3038 39.1755 70.9359 39.1755 75.5744 39.1755 76.271 33.8436 76.271 30.1328 76.271 26.4252 75.5744 21.09 70.9359 21.09 66.3038 21.09 65.6072 26.4252 65.6072 30.1328Z" fill="#898989" fill-rule="evenodd" fill-opacity="1" transform="matrix(1.00664 0 0 1 0.237087 0.00192209)"/><path d="M89.1386 50.2462C91.4595 42.5381 94.0083 34.5988 93.9497 26.5391 93.9497 18.4826 91.4009 10.5434 89.0832 2.83197L96.2706 2.83197C99.2816 10.5434 102.644 18.1343 102.644 26.5391 102.644 34.9439 99.2816 42.5381 96.2706 50.2462L89.1386 50.2462Z" fill="#898989" fill-rule="evenodd" fill-opacity="1" transform="matrix(1.00664 0 0 1 0.237087 0.00192209)"/><path d="M119.519 20.3967 119.636 20.3967C121.664 16.3961 125.489 14.889 129.838 14.889 133.373 14.889 137.373 16.7444 138.591 20.2795 140.56 16.7997 144.56 14.8304 148.909 14.7132 155.169 14.7132 159.804 18.7724 159.804 25.2078L159.804 44.68 148.792 44.68 148.792 27.5807C148.675 24.7423 147.982 21.6727 144.56 21.6727 139.111 21.6727 139.808 27.6426 139.808 27.9876L139.808 44.68 128.793 44.68 128.793 27.5807C128.679 24.7423 127.982 21.6727 124.561 21.6727 119.115 21.6727 119.808 27.6426 119.808 27.9876L119.808 44.68 108.796 44.68 108.796 23.0626C108.796 20.4553 108.738 18.7138 108.448 15.5823L119.346 15.5823 119.519 20.3967Z" fill="#2B2A29" fill-rule="evenodd" fill-opacity="1" transform="matrix(1.00664 0 0 1 0.237087 0.00192209)"/><path d="M12.8057 86.3847C11.6697 87.7649 10.1039 88.4517 8.10203 88.4517 6.25637 88.4517 4.85015 87.9212 3.88012 86.8632 2.91009 85.8053 2.41531 84.2526 2.39578 82.2084L2.39578 70.9424 6.98877 70.9424 6.98877 82.0554C6.98877 83.8457 7.80256 84.7409 9.43663 84.7409 10.9926 84.7409 12.0603 84.2005 12.6462 83.1198L12.6462 70.9424 17.2522 70.9424 17.2522 88.1262 12.9294 88.1262 12.8057 86.3847ZM25.019 70.9424 25.1622 72.8564C26.3829 71.3655 28.03 70.6169 30.11 70.6169 32.3202 70.6169 33.8404 71.4892 34.6639 73.2373 35.8748 71.4892 37.5935 70.6169 39.8363 70.6169 41.695 70.6169 43.0849 71.1572 43.9964 72.2444 44.9078 73.3284 45.3635 74.9657 45.3635 77.1467L45.3635 88.1262 40.751 88.1262 40.751 77.1434C40.751 76.1669 40.5622 75.454 40.1814 75.0048 39.8005 74.5556 39.13 74.3277 38.1632 74.3277 36.7863 74.3277 35.8325 74.982 35.2987 76.3003L35.3149 88.1262 30.7252 88.1262 30.7252 77.1597C30.7252 76.1604 30.5299 75.4377 30.136 74.995 29.7454 74.5491 29.0781 74.3277 28.1341 74.3277 26.8321 74.3277 25.8881 74.8681 25.3087 75.9488L25.3087 88.1262 20.7124 88.1262 20.7124 70.9424 25.019 70.9424ZM56.8086 88.4517C54.2859 88.4517 52.2286 87.677 50.6466 86.1308 49.0614 84.5846 48.2704 82.5241 48.2704 79.9461L48.2704 79.5034C48.2704 77.7782 48.6057 76.232 49.273 74.8681 49.9403 73.5074 50.8842 72.456 52.1114 71.7236 53.3354 70.9847 54.7318 70.6169 56.2975 70.6169 58.651 70.6169 60.5032 71.359 61.854 72.8401 63.2049 74.3277 63.8755 76.4305 63.8755 79.1551L63.8755 81.0333 52.9285 81.0333C53.075 82.1531 53.5274 83.0482 54.2696 83.7285 55.0183 84.4056 55.9623 84.7409 57.1081 84.7409 58.8789 84.7409 60.259 84.1029 61.2551 82.8269L63.5142 85.3561C62.8241 86.3261 61.8899 87.0911 60.7148 87.6347 59.5429 88.1816 58.2343 88.4517 56.8086 88.4517ZM56.2813 74.3277C55.3698 74.3277 54.6342 74.637 54.0645 75.2554 53.4981 75.8739 53.1368 76.7561 52.9773 77.9084L59.3639 77.9084 59.3639 77.5373C59.3411 76.5184 59.0709 75.7274 58.5371 75.1675 58.0065 74.6077 57.2578 74.3277 56.2813 74.3277ZM55.7702 65.962 58.0944 63.6834 62.0201 63.6834 62.0201 63.8592 57.2187 68.3383 54.3119 68.3383 49.5106 63.8234 49.5106 63.6834 53.4395 63.6834 55.7702 65.962ZM71.3232 88.1262 66.714 88.1262 66.714 63.716 71.3232 63.716 71.3232 88.1262ZM83.0319 88.4517C80.5092 88.4517 78.452 87.677 76.8667 86.1308 75.2847 84.5846 74.4937 82.5241 74.4937 79.9461L74.4937 79.5034C74.4937 77.7782 74.829 76.232 75.4963 74.8681 76.1636 73.5074 77.1076 72.456 78.3315 71.7236 79.5587 70.9847 80.9519 70.6169 82.5209 70.6169 84.8744 70.6169 86.7233 71.359 88.0742 72.8401 89.425 74.3277 90.0988 76.4305 90.0988 79.1551L90.0988 81.0333 79.1518 81.0333C79.2983 82.1531 79.7475 83.0482 80.4929 83.7285 81.2416 84.4056 82.1856 84.7409 83.3282 84.7409 85.1022 84.7409 86.4791 84.1029 87.4785 82.8269L89.7343 85.3561C89.0474 86.3261 88.1132 87.0911 86.9349 87.6347 85.7663 88.1816 84.4577 88.4517 83.0319 88.4517ZM82.5046 74.3277C81.5932 74.3277 80.8543 74.637 80.2846 75.2554 79.7215 75.8739 79.3569 76.7561 79.2007 77.9084L85.584 77.9084 85.584 77.5373C85.5644 76.5184 85.291 75.7274 84.7604 75.1675 84.2298 74.6077 83.4812 74.3277 82.5046 74.3277ZM99.8415 84.7409C100.688 84.7409 101.378 84.5098 101.908 84.041 102.439 83.5821 102.712 82.9636 102.732 82.1856L107.039 82.1856C107.029 83.3542 106.713 84.4219 106.085 85.3919 105.46 86.3652 104.61 87.1139 103.52 87.651 102.436 88.1881 101.235 88.4517 99.9228 88.4517 97.4652 88.4517 95.5219 87.6705 94.1027 86.108 92.6867 84.5456 91.9771 82.3874 91.9771 79.6336L91.9771 79.3276C91.9771 76.6747 92.6802 74.5653 94.0929 72.9866 95.4958 71.4079 97.4327 70.6169 99.8903 70.6169 102.039 70.6169 103.764 71.2288 105.059 72.4495 106.361 73.6767 107.019 75.3043 107.039 77.342L102.732 77.342C102.712 76.4468 102.439 75.7209 101.908 75.161 101.378 74.6044 100.678 74.3277 99.8089 74.3277 98.7412 74.3277 97.9307 74.7183 97.3838 75.4931 96.8402 76.2743 96.57 77.5373 96.57 79.2918L96.57 79.7638C96.57 81.5346 96.837 82.8041 97.3773 83.5821 97.9209 84.3568 98.7412 84.7409 99.8415 84.7409ZM115.919 81.2319 114.265 82.8855 114.265 88.1262 109.672 88.1262 109.672 63.716 114.265 63.716 114.265 77.2443 115.154 76.105 119.555 70.9424 125.072 70.9424 118.861 78.1037 125.612 88.1262 120.336 88.1262 115.919 81.2319ZM126.335 79.3764C126.335 77.6675 126.667 76.1506 127.321 74.816 127.979 73.4814 128.923 72.4463 130.16 71.7138 131.39 70.9814 132.822 70.6169 134.457 70.6169 136.777 70.6169 138.669 71.3265 140.14 72.749 141.605 74.165 142.425 76.0953 142.591 78.5301L142.624 79.7085C142.624 82.3484 141.888 84.4642 140.417 86.0592 138.942 87.6542 136.966 88.4517 134.489 88.4517 132.009 88.4517 130.03 87.6542 128.555 86.0657 127.074 84.4772 126.335 82.3158 126.335 79.5848L126.335 79.3764ZM130.931 79.7019C130.931 81.336 131.234 82.5827 131.852 83.4454 132.464 84.308 133.343 84.7409 134.489 84.7409 135.599 84.7409 136.468 84.3145 137.093 83.4616 137.721 82.6088 138.031 81.2416 138.031 79.3667 138.031 77.7651 137.721 76.5249 137.093 75.646 136.468 74.7672 135.589 74.3277 134.457 74.3277 133.334 74.3277 132.464 74.7672 131.852 75.6395 131.234 76.5119 130.931 77.8693 130.931 79.7019ZM160.944 79.6922C160.944 82.3451 160.341 84.4642 159.137 86.0592 157.939 87.6542 156.312 88.4517 154.267 88.4517 152.529 88.4517 151.126 87.8495 150.055 86.6419L150.055 94.7342 145.462 94.7342 145.462 70.9424 149.72 70.9424 149.883 72.622C150.996 71.2842 152.444 70.6169 154.238 70.6169 156.354 70.6169 158.004 71.4014 159.179 72.9703 160.351 74.5393 160.944 76.6975 160.944 79.4546L160.944 79.6922ZM156.347 79.3439C156.347 77.7391 156.067 76.5022 155.498 75.633 154.935 74.7607 154.108 74.3277 153.03 74.3277 151.585 74.3277 150.599 74.8811 150.055 75.9813L150.055 83.0385C150.615 84.1712 151.618 84.7409 153.063 84.7409 155.254 84.7409 156.347 82.9408 156.347 79.3439ZM173.453 75.2326C172.828 75.1513 172.281 75.1089 171.803 75.1089 170.061 75.1089 168.922 75.6949 168.385 76.87L168.385 88.1262 163.792 88.1262 163.792 70.9424 168.131 70.9424 168.255 72.9801C169.179 71.4014 170.458 70.6169 172.086 70.6169 172.597 70.6169 173.072 70.6885 173.518 70.8219L173.453 75.2326ZM185.963 86.3847C184.826 87.7649 183.261 88.4517 181.259 88.4517 179.413 88.4517 178.01 87.9212 177.037 86.8632 176.067 85.8053 175.572 84.2526 175.553 82.2084L175.553 70.9424 180.146 70.9424 180.146 82.0554C180.146 83.8457 180.959 84.7409 182.593 84.7409 184.149 84.7409 185.217 84.2005 185.803 83.1198L185.803 70.9424 190.409 70.9424 190.409 88.1262 186.086 88.1262 185.963 86.3847ZM179.462 65.5714C179.462 64.66 179.804 63.8885 180.494 63.2603 181.184 62.632 182.017 62.3163 183.007 62.3163 183.98 62.3163 184.81 62.6255 185.507 63.244 186.2 63.8625 186.548 64.6372 186.548 65.5714 186.548 66.4731 186.21 67.225 185.533 67.8402 184.856 68.4522 184.009 68.7614 183.007 68.7614 181.975 68.7614 181.129 68.4457 180.461 67.824 179.794 67.199 179.462 66.4503 179.462 65.5714ZM181.291 65.5714C181.291 66.0369 181.444 66.434 181.754 66.766 182.056 67.1013 182.473 67.2706 183.007 67.2706 183.537 67.2706 183.954 67.1013 184.257 66.766 184.566 66.434 184.719 66.0369 184.719 65.5714 184.719 65.0831 184.566 64.6762 184.254 64.341 183.938 64.0089 183.524 63.8397 183.007 63.8397 182.486 63.8397 182.073 64.0089 181.757 64.341 181.444 64.6762 181.291 65.0831 181.291 65.5714ZM198.179 70.9424 198.319 72.8564C199.54 71.3655 201.187 70.6169 203.267 70.6169 205.48 70.6169 206.997 71.4892 207.824 73.2373 209.032 71.4892 210.75 70.6169 212.993 70.6169 214.852 70.6169 216.242 71.1572 217.153 72.2444 218.065 73.3284 218.52 74.9657 218.52 77.1467L218.52 88.1262 213.908 88.1262 213.908 77.1434C213.908 76.1669 213.719 75.454 213.338 75.0048 212.961 74.5556 212.287 74.3277 211.32 74.3277 209.943 74.3277 208.989 74.982 208.459 76.3003L208.475 88.1262 203.885 88.1262 203.885 77.1597C203.885 76.1604 203.69 75.4377 203.293 74.995 202.902 74.5491 202.235 74.3277 201.291 74.3277 199.989 74.3277 199.045 74.8681 198.465 75.9488L198.465 88.1262 193.869 88.1262 193.869 70.9424 198.179 70.9424ZM228.462 81.629 231.642 70.9424 236.567 70.9424 229.656 90.7889 229.272 91.6906C228.247 93.9366 226.548 95.0597 224.188 95.0597 223.52 95.0597 222.843 94.9555 222.153 94.7569L222.153 91.2674 222.853 91.2837C223.722 91.2837 224.367 91.1535 224.803 90.8866 225.229 90.6229 225.564 90.1835 225.809 89.5715L226.346 88.1588 220.327 70.9424 225.268 70.9424 228.462 81.629ZM247.693 83.3802C247.693 82.8204 247.41 82.3777 246.856 82.0554 246.3 81.7299 245.408 81.4434 244.177 81.1895 240.089 80.3302 238.041 78.5919 238.041 75.9748 238.041 74.4449 238.676 73.1721 239.942 72.1533 241.212 71.1279 242.866 70.6169 244.91 70.6169 247.091 70.6169 248.839 71.1312 250.144 72.1565 251.453 73.1884 252.107 74.523 252.107 76.1669L247.514 76.1669C247.514 75.5093 247.302 74.9722 246.879 74.5426 246.456 74.1161 245.795 73.9045 244.893 73.9045 244.119 73.9045 243.523 74.0771 243.1 74.4254 242.677 74.7769 242.465 75.2229 242.465 75.76 242.465 76.2645 242.703 76.6747 243.185 76.9839 243.67 77.2997 244.48 77.5698 245.626 77.7944 246.772 78.0223 247.732 78.2827 248.516 78.5626 250.941 79.4546 252.156 80.9975 252.156 83.1914 252.156 84.7572 251.485 86.0267 250.141 87 248.793 87.97 247.052 88.4517 244.926 88.4517 243.484 88.4517 242.205 88.1978 241.085 87.6835 239.968 87.166 239.096 86.4629 238.455 85.5677 237.82 84.6725 237.504 83.7058 237.504 82.6641L241.856 82.6641C241.899 83.4844 242.205 84.1061 242.761 84.5456 243.328 84.9818 244.08 85.1966 245.017 85.1966 245.896 85.1966 246.563 85.0306 247.016 84.6986 247.465 84.3633 247.693 83.9239 247.693 83.3802ZM259.965 88.1262 255.352 88.1262 255.352 63.716 259.965 63.716 259.965 88.1262ZM263.021 79.3764C263.021 77.6675 263.353 76.1506 264.011 74.816 264.665 73.4814 265.609 72.4463 266.846 71.7138 268.08 70.9814 269.512 70.6169 271.143 70.6169 273.464 70.6169 275.358 71.3265 276.83 72.749 278.294 74.165 279.111 76.0953 279.281 78.5301L279.313 79.7085C279.313 82.3484 278.574 84.4642 277.106 86.0592 275.628 87.6542 273.656 88.4517 271.175 88.4517 268.698 88.4517 266.716 87.6542 265.241 86.0657 263.76 84.4772 263.021 82.3158 263.021 79.5848L263.021 79.3764ZM267.618 79.7019C267.618 81.336 267.92 82.5827 268.539 83.4454 269.154 84.308 270.033 84.7409 271.175 84.7409 272.289 84.7409 273.155 84.3145 273.78 83.4616 274.408 82.6088 274.717 81.2416 274.717 79.3667 274.717 77.7651 274.408 76.5249 273.78 75.646 273.155 74.7672 272.276 74.3277 271.143 74.3277 270.02 74.3277 269.154 74.7672 268.539 75.6395 267.92 76.5119 267.618 77.8693 267.618 79.7019ZM288.343 82.5176 291.533 70.9424 296.334 70.9424 290.537 88.1262 286.149 88.1262 280.348 70.9424 285.15 70.9424 288.343 82.5176ZM306.077 88.4517C303.554 88.4517 301.5 87.677 299.915 86.1308 298.33 84.5846 297.539 82.5241 297.539 79.9461L297.539 79.5034C297.539 77.7782 297.874 76.232 298.541 74.8681 299.209 73.5074 300.153 72.456 301.38 71.7236 302.607 70.9847 304 70.6169 305.566 70.6169 307.923 70.6169 309.772 71.359 311.122 72.8401 312.473 74.3277 313.144 76.4305 313.144 79.1551L313.144 81.0333 302.2 81.0333C302.347 82.1531 302.796 83.0482 303.538 83.7285 304.287 84.4056 305.231 84.7409 306.376 84.7409 308.15 84.7409 309.527 84.1029 310.527 82.8269L312.783 85.3561C312.092 86.3261 311.161 87.0911 309.983 87.6347 308.811 88.1816 307.503 88.4517 306.077 88.4517ZM305.553 74.3277C304.641 74.3277 303.903 74.637 303.333 75.2554 302.77 75.8739 302.405 76.7561 302.249 77.9084L308.632 77.9084 308.632 77.5373C308.609 76.5184 308.339 75.7274 307.809 75.1675 307.275 74.6077 306.526 74.3277 305.553 74.3277ZM305.943 63.716 310.95 63.716 306.542 68.6312 302.812 68.6312 305.943 63.716ZM328.16 70.9424 328.303 72.8564C329.524 71.3655 331.171 70.6169 333.251 70.6169 335.461 70.6169 336.981 71.4892 337.805 73.2373 339.016 71.4892 340.734 70.6169 342.974 70.6169 344.836 70.6169 346.226 71.1572 347.137 72.2444 348.049 73.3284 348.504 74.9657 348.504 77.1467L348.504 88.1262 343.892 88.1262 343.892 77.1434C343.892 76.1669 343.703 75.454 343.322 75.0048 342.941 74.5556 342.271 74.3277 341.304 74.3277 339.927 74.3277 338.973 74.982 338.439 76.3003L338.456 88.1262 333.866 88.1262 333.866 77.1597C333.866 76.1604 333.671 75.4377 333.277 74.995 332.886 74.5491 332.219 74.3277 331.275 74.3277 329.973 74.3277 329.029 74.8681 328.449 75.9488L328.449 88.1262 323.853 88.1262 323.853 70.9424 328.16 70.9424ZM362.329 86.3847C361.196 87.7649 359.627 88.4517 357.629 88.4517 355.783 88.4517 354.377 87.9212 353.407 86.8632 352.437 85.8053 351.942 84.2526 351.919 82.2084L351.919 70.9424 356.515 70.9424 356.515 82.0554C356.515 83.8457 357.329 84.7409 358.96 84.7409 360.519 84.7409 361.587 84.2005 362.173 83.1198L362.173 70.9424 366.779 70.9424 366.779 88.1262 362.456 88.1262 362.329 86.3847ZM379.549 83.3802C379.549 82.8204 379.265 82.3777 378.712 82.0554 378.152 81.7299 377.263 81.4434 376.033 81.1895 371.941 80.3302 369.897 78.5919 369.897 75.9748 369.897 74.4449 370.532 73.1721 371.795 72.1533 373.064 71.1279 374.721 70.6169 376.765 70.6169 378.946 70.6169 380.691 71.1312 382 72.1565 383.308 73.1884 383.963 74.523 383.963 76.1669L379.37 76.1669C379.37 75.5093 379.158 74.9722 378.735 74.5426 378.312 74.1161 377.648 73.9045 376.749 73.9045 375.974 73.9045 375.375 74.0771 374.952 74.4254 374.529 74.7769 374.318 75.2229 374.318 75.76 374.318 76.2645 374.558 76.6747 375.04 76.9839 375.522 77.2997 376.336 77.5698 377.482 77.7944 378.624 78.0223 379.584 78.2827 380.372 78.5626 382.797 79.4546 384.011 80.9975 384.011 83.1914 384.011 84.7572 383.341 86.0267 381.993 87 380.649 87.97 378.907 88.4517 376.782 88.4517 375.34 88.4517 374.057 88.1978 372.941 87.6835 371.824 87.166 370.949 86.4629 370.31 85.5677 369.676 84.6725 369.36 83.7058 369.36 82.6641L373.712 82.6641C373.754 83.4844 374.057 84.1061 374.617 84.5456 375.18 84.9818 375.935 85.1966 376.873 85.1966 377.752 85.1966 378.419 85.0306 378.868 84.6986 379.321 84.3633 379.549 83.9239 379.549 83.3802ZM394.893 88.4517C392.371 88.4517 390.317 87.677 388.731 86.1308 387.146 84.5846 386.355 82.5241 386.355 79.9461L386.355 79.5034C386.355 77.7782 386.69 76.232 387.358 74.8681 388.025 73.5074 388.969 72.456 390.196 71.7236 391.423 70.9847 392.816 70.6169 394.382 70.6169 396.739 70.6169 398.588 71.359 399.939 72.8401 401.29 74.3277 401.96 76.4305 401.96 79.1551L401.96 81.0333 391.016 81.0333C391.163 82.1531 391.612 83.0482 392.354 83.7285 393.103 84.4056 394.047 84.7409 395.193 84.7409 396.967 84.7409 398.344 84.1029 399.343 82.8269L401.599 85.3561C400.909 86.3261 399.978 87.0911 398.799 87.6347 397.628 88.1816 396.319 88.4517 394.893 88.4517ZM394.366 74.3277C393.454 74.3277 392.719 74.637 392.149 75.2554 391.586 75.8739 391.221 76.7561 391.065 77.9084L397.449 77.9084 397.449 77.5373C397.426 76.5184 397.156 75.7274 396.625 75.1675 396.091 74.6077 395.342 74.3277 394.366 74.3277ZM414.867 86.3847C413.734 87.7649 412.165 88.4517 410.163 88.4517 408.321 88.4517 406.914 87.9212 405.944 86.8632 404.971 85.8053 404.48 84.2526 404.457 82.2084L404.457 70.9424 409.053 70.9424 409.053 82.0554C409.053 83.8457 409.867 84.7409 411.498 84.7409 413.054 84.7409 414.125 84.2005 414.711 83.1198L414.711 70.9424 419.317 70.9424 419.317 88.1262 414.99 88.1262 414.867 86.3847ZM427.083 70.9424 427.223 72.8564C428.444 71.3655 430.094 70.6169 432.171 70.6169 434.385 70.6169 435.905 71.4892 436.728 73.2373 437.939 71.4892 439.658 70.6169 441.897 70.6169 443.759 70.6169 445.146 71.1572 446.057 72.2444 446.969 73.3284 447.425 74.9657 447.425 77.1467L447.425 88.1262 442.815 88.1262 442.815 77.1434C442.815 76.1669 442.623 75.454 442.246 75.0048 441.865 74.5556 441.191 74.3277 440.228 74.3277 438.851 74.3277 437.894 74.982 437.363 76.3003L437.379 88.1262 432.79 88.1262 432.79 77.1597C432.79 76.1604 432.594 75.4377 432.197 74.995 431.806 74.5491 431.139 74.3277 430.195 74.3277 428.896 74.3277 427.952 74.8681 427.37 75.9488L427.37 88.1262 422.777 88.1262 422.777 70.9424 427.083 70.9424ZM465.484 82.5176 468.674 70.9424 473.472 70.9424 467.675 88.1262 463.287 88.1262 457.486 70.9424 462.288 70.9424 465.484 82.5176ZM499.084 79.6922C499.084 82.3451 498.481 84.4642 497.277 86.0592 496.079 87.6542 494.452 88.4517 492.404 88.4517 490.669 88.4517 489.263 87.8495 488.195 86.6419L488.195 94.7342 483.602 94.7342 483.602 70.9424 487.86 70.9424 488.023 72.622C489.136 71.2842 490.581 70.6169 492.378 70.6169 494.494 70.6169 496.144 71.4014 497.319 72.9703 498.491 74.5393 499.084 76.6975 499.084 79.4546L499.084 79.6922ZM494.487 79.3439C494.487 77.7391 494.207 76.5022 493.638 75.633 493.071 74.7607 492.248 74.3277 491.167 74.3277 489.725 74.3277 488.739 74.8811 488.195 75.9813L488.195 83.0385C488.755 84.1712 489.758 84.7409 491.2 84.7409 493.394 84.7409 494.487 82.9408 494.487 79.3439ZM511.593 75.2326C510.968 75.1513 510.421 75.1089 509.943 75.1089 508.201 75.1089 507.062 75.6949 506.525 76.87L506.525 88.1262 501.932 88.1262 501.932 70.9424 506.271 70.9424 506.395 72.9801C507.319 71.4014 508.598 70.6169 510.226 70.6169 510.734 70.6169 511.212 70.6885 511.658 70.8219L511.593 75.2326ZM523.289 88.1262C523.077 87.7161 522.924 87.205 522.827 86.5931 521.713 87.8333 520.265 88.4517 518.487 88.4517 516.805 88.4517 515.405 87.9635 514.298 86.9869 513.191 86.0104 512.638 84.78 512.638 83.2924 512.638 81.4727 513.318 80.073 514.669 79.0965 516.02 78.1199 517.97 77.6252 520.522 77.6154L522.638 77.6154 522.638 76.6389C522.638 75.8446 522.429 75.2164 522.023 74.7444 521.616 74.2724 520.971 74.0348 520.092 74.0348 519.321 74.0348 518.715 74.217 518.276 74.5816 517.836 74.9462 517.615 75.4507 517.615 76.0855L513.025 76.0855C513.025 75.0927 513.328 74.1682 513.94 73.3284 514.558 72.4821 515.428 71.8213 516.551 71.3395 517.674 70.8545 518.93 70.6169 520.33 70.6169 522.452 70.6169 524.135 71.1475 525.375 72.2119 526.625 73.2796 527.247 74.7704 527.247 76.704L527.247 84.155C527.26 85.7825 527.485 87.0195 527.931 87.8561L527.931 88.1262 523.289 88.1262ZM519.49 84.9362C520.167 84.9362 520.792 84.7865 521.368 84.487 521.938 84.1843 522.361 83.7774 522.638 83.2728L522.638 80.3172 520.922 80.3172C518.624 80.3172 517.397 81.1082 517.25 82.6967L517.234 82.9668C517.234 83.5365 517.433 84.0085 517.836 84.3828 518.237 84.7539 518.79 84.9362 519.49 84.9362ZM536.052 84.4154 544.46 84.4154 544.46 88.1262 530.186 88.1262 530.186 85.3236 538.275 74.6532 530.427 74.6532 530.427 70.9424 544.206 70.9424 544.206 73.6539 536.052 84.4154ZM555.007 88.4517C552.484 88.4517 550.427 87.677 548.842 86.1308 547.26 84.5846 546.469 82.5241 546.469 79.9461L546.469 79.5034C546.469 77.7782 546.804 76.232 547.471 74.8681 548.138 73.5074 549.082 72.456 550.306 71.7236 551.534 70.9847 552.927 70.6169 554.496 70.6169 556.849 70.6169 558.698 71.359 560.049 72.8401 561.4 74.3277 562.074 76.4305 562.074 79.1551L562.074 81.0333 551.127 81.0333C551.273 82.1531 551.722 83.0482 552.468 83.7285 553.216 84.4056 554.157 84.7409 555.303 84.7409 557.077 84.7409 558.454 84.1029 559.453 82.8269L561.709 85.3561C561.022 86.3261 560.088 87.0911 558.91 87.6347 557.738 88.1816 556.432 88.4517 555.007 88.4517ZM554.479 74.3277C553.568 74.3277 552.829 74.637 552.259 75.2554 551.696 75.8739 551.332 76.7561 551.175 77.9084L557.559 77.9084 557.559 77.5373C557.539 76.5184 557.266 75.7274 556.735 75.1675 556.205 74.6077 555.456 74.3277 554.479 74.3277Z" fill="#898989" fill-rule="nonzero" fill-opacity="1" transform="matrix(1.00664 0 0 1 0.237087 0.00192209)"/></g></g></svg>